<svg xmlns="http://www.w3.org/2000/svg" viewBox="0 0 512 512" width="512" height="512">
<defs>
  <filter id="g1" x="-30%" y="-30%" width="160%" height="160%">
    <feGaussianBlur stdDeviation="5" result="b"></feGaussianBlur>
    <feMerge><feMergeNode in="b"></feMergeNode><feMergeNode in="SourceGraphic"></feMergeNode></feMerge>
  </filter>
  <filter id="g2" x="-28%" y="-28%" width="156%" height="156%">
    <feGaussianBlur stdDeviation="12" result="b"></feGaussianBlur>
    <feMerge><feMergeNode in="b"></feMergeNode><feMergeNode in="SourceGraphic"></feMergeNode></feMerge>
  </filter>
  <radialGradient id="bg" cx="50%" cy="42%" r="55%">
    <stop offset="0%" stop-color="#00d4f5" stop-opacity="0.12"></stop>
    <stop offset="100%" stop-color="#00d4f5" stop-opacity="0"></stop>
  </radialGradient>
</defs>


<rect width="512" height="512" rx="110" fill="#07090e"></rect>
<rect width="512" height="512" rx="110" fill="url(#bg)"></rect>



<polygon points="256,84 405,170 405,342 256,428 107,342 107,170" fill="none" stroke="#00d4f5" stroke-width="1.5" opacity="0.16"></polygon>



<circle cx="256" cy="256" r="148" fill="none" stroke="rgba(255,255,255,0.055)" stroke-width="30" stroke-linecap="round" stroke-dasharray="698 232" transform="rotate(135 256 256)"></circle>


<circle cx="256" cy="256" r="148" fill="none" stroke="#00d4f5" stroke-width="30" stroke-linecap="round" stroke-dasharray="524 406" transform="rotate(135 256 256)" filter="url(#g2)" opacity="0.62"></circle>


<circle cx="256" cy="256" r="148" fill="none" stroke="#00d4f5" stroke-width="20" stroke-linecap="round" stroke-dasharray="524 406" transform="rotate(135 256 256)"></circle>



<line x1="256" y1="256" x2="234" y2="265" stroke="rgba(255,255,255,0.26)" stroke-width="5" stroke-linecap="round"></line>



<line x1="256" y1="256" x2="362" y2="212" stroke="#ffffff" stroke-width="7" stroke-linecap="round" filter="url(#g1)"></line>


<circle cx="256" cy="256" r="23" fill="#00d4f5" filter="url(#g1)" opacity="0.82"></circle>

<circle cx="256" cy="256" r="19" fill="#00d4f5"></circle>

<circle cx="256" cy="256" r="7" fill="#07090e"></circle>
</svg>